# xmcd
#
# Track frame offsets:
#	150
#	19817
#	41322
#	63915
#	80260
#	106145
#	125572
#	143515
#	162292
#	177117
#	196400
#	219435
#	240902
#	261097
#	282075
#	300107
#	326197
#
# Disc length: 4613 seconds
#
# Revision: 1
# Processed by: cddbd v1.5.1PL0 Copyright (c) Steve Scherf et al.
# Submitted via: CDex 1.50Beta5
#
DISCID=d7120311
DTITLE=Various Artist - MANIAX '80-'90
DYEAR=1900
DGENRE=POPS
TTITLE0=DARYL HALL and JOHN OATES/OUT OF TOUCH
TTITLE1=DARYL HALL/DREAMTIME
TTITLE2=EURYTHMICS/HERE COMES THE RAIN AGAIN
TTITLE3=4/4
TTITLE4=5/BROKEN WINGS
TTITLE5=AIR SUPPLY/THE ONE THAT YOU LOVE
TTITLE6=AIR SUPPLY/EVEN THE NIGHTS ARE BETTER
TTITLE7=8/8
TTITLE8=RICK ASTLEY/SHE WANTS TO DANCE WITH ME
TTITLE9=10/Digging Your Scene
TTITLE10=A FOCK OF SEAGULLS/I RAN
TTITLE11=BILLY OCEAN/GET OUTTA MY DREAMS, GET INTO MY CAR
TTITLE12=LISA STANAFIELD/ALL AROUND THE WORLD
TTITLE13=TAYLOR DAYNE/LOVE WILL LEAD YOU BACK
TTITLE14=MILLI VANILLI/I’M GONNA MISS YOU
TTITLE15=HI-FIVE/I LIKE THE WAY(THE KISSING GAME)
TTITLE16=17/17
EXTD=
EXTT0=
EXTT1=
EXTT2=
EXTT3=
EXTT4=
EXTT5=
EXTT6=
EXTT7=
EXTT8=
EXTT9=
EXTT10=
EXTT11=
EXTT12=
EXTT13=
EXTT14=
EXTT15=
EXTT16=
PLAYORDER=
